<?xml version="1.0" standalone="no"?>
<!DOCTYPE svg PUBLIC "-//W3C//DTD SVG 20010904//EN"
 "http://www.w3.org/TR/2001/REC-SVG-20010904/DTD/svg10.dtd">
<svg version="1.0" xmlns="http://www.w3.org/2000/svg"
 width="960.000000pt" height="720.000000pt" viewBox="0 0 960.000000 720.000000"
 preserveAspectRatio="xMidYMid meet">
<metadata>
Created by potrace 1.16, written by Peter Selinger 2001-2019
</metadata>
<g transform="translate(0.000000,720.000000) scale(0.100000,-0.100000)"
fill="#000000" stroke="none">
<path d="M0 6205 c0 -547 3 -995 8 -995 42 1 559 22 742 30 194 9 265 8 410
-5 96 -8 190 -15 210 -14 l35 1 -35 8 c-19 5 -70 14 -113 21 -42 6 -76 13 -74
15 2 2 250 10 552 18 303 9 699 20 880 26 749 25 1193 37 1240 33 28 -1 116
-8 196 -14 l147 -12 6 -51 c3 -28 8 -253 11 -501 3 -247 7 -537 9 -644 l4
-194 -187 7 c-102 4 -274 11 -381 16 -107 6 -350 17 -540 25 -671 29 -1029 45
-1330 60 -840 42 -1434 70 -1657 80 l-133 6 0 -39 0 -39 103 -7 c56 -3 181
-11 277 -17 96 -5 204 -12 240 -14 36 -2 126 -7 200 -10 74 -3 225 -12 335
-20 110 -8 256 -17 325 -20 69 -3 202 -10 295 -15 294 -17 535 -29 675 -35 74
-3 164 -8 200 -10 59 -5 247 -15 865 -45 303 -15 407 -19 560 -26 77 -3 144
-9 150 -15 5 -5 11 -111 13 -248 l4 -238 -43 2 c-24 1 -57 7 -72 14 -43 17
-347 19 -347 1 0 -5 8 -10 18 -10 29 0 72 -24 67 -37 -2 -8 11 -17 35 -23 22
-6 42 -14 44 -19 7 -10 -104 -21 -119 -12 -13 8 -74 8 -69 0 6 -11 -173 -21
-242 -14 -63 7 -64 8 -38 21 31 16 37 17 30 5 -15 -23 140 -20 159 4 6 7 35
15 65 18 30 4 68 10 85 15 26 7 27 9 10 16 -33 13 -152 19 -135 7 13 -9 13
-11 -2 -11 -10 0 -18 7 -18 15 0 17 -16 20 -25 5 -3 -5 -23 -10 -43 -10 -28 0
-33 3 -22 10 8 5 25 10 38 10 12 0 22 6 22 13 0 9 11 12 33 9 35 -4 87 12 87
27 0 5 -46 8 -105 8 -62 -1 -107 2 -109 8 -3 6 -5 4 -5 -2 -1 -9 -20 -13 -63
-11 l-63 1 50 6 c65 8 44 22 -39 27 -130 6 -172 6 -211 -1 -57 -11 -63 -17
-30 -31 29 -13 30 -13 5 -14 -23 -1 -23 -2 -5 -10 18 -8 17 -9 -7 -9 -15 -1
-30 4 -33 10 -4 5 -12 8 -18 6 -6 -2 -21 5 -32 15 -12 12 -28 17 -40 13 -46
-12 -132 -16 -155 -6 -23 9 -21 10 20 10 58 -1 151 11 170 22 9 5 -11 9 -53 9
-38 0 -78 5 -90 12 -13 7 -74 13 -155 15 -73 1 -149 7 -169 12 -20 6 -63 8
-95 4 -40 -4 -58 -2 -58 5 0 7 -18 12 -47 11 -27 0 -65 2 -85 6 -24 5 -38 3
-38 -3 0 -6 12 -13 28 -15 15 -2 7 -3 -17 -1 -24 2 -77 4 -118 4 -65 0 -73 2
-60 14 9 10 27 13 50 10 20 -2 39 1 42 7 6 8 -81 8 -165 -1 -3 0 2 -5 10 -10
11 -7 7 -10 -20 -11 -19 -1 -47 -1 -62 0 -15 1 -35 -2 -45 -6 -10 -5 -34 -6
-53 -2 -35 6 -35 6 -5 8 39 2 56 13 46 30 -9 14 -64 12 -203 -7 -56 -8 -90
-22 -52 -22 11 0 25 -9 32 -20 10 -16 10 -20 -2 -20 -8 0 -23 -3 -33 -6 -15
-5 -15 -4 -3 5 12 8 5 11 -30 10 -36 0 -41 -2 -25 -10 17 -8 17 -9 -5 -4 -14
2 -31 5 -37 5 -26 0 -12 18 20 25 28 7 29 9 9 12 -13 3 -28 0 -35 -5 -21 -17
-122 -35 -163 -29 -46 7 -122 12 -304 22 -148 7 -164 10 -155 25 3 5 1 10 -4
10 -6 0 -11 -5 -11 -11 0 -9 -27 -10 -97 -5 -125 10 -152 12 -186 14 -24 2
-26 4 -17 22 6 11 20 20 32 20 16 0 19 3 11 11 -6 6 -26 9 -44 7 -25 -2 -33
-7 -31 -19 2 -14 -8 -17 -58 -18 -33 0 -60 4 -60 9 0 5 15 6 34 3 18 -3 36 -1
39 4 3 5 -103 9 -253 8 -194 0 -262 3 -271 13 -11 10 -9 12 9 12 33 0 27 17
-8 22 l-30 5 0 -1804 0 -1803 1273 1 c1159 0 1270 1 1250 16 -13 8 -23 20 -23
25 0 5 -9 18 -20 30 -26 29 -25 48 3 47 42 -1 62 -15 64 -45 1 -16 5 -40 9
-53 7 -23 8 -24 15 -5 7 17 8 17 8 1 1 -16 147 -17 3059 -17 2919 0 3059 1
3073 18 22 26 12 48 -12 26 -11 -10 -19 -12 -19 -6 0 7 5 12 11 12 21 0 3 34
-21 40 -16 4 -25 13 -25 25 0 11 -6 26 -12 33 -15 15 -18 72 -4 72 5 0 7 -10
5 -22 -2 -13 -2 -17 2 -11 4 10 11 9 29 -3 14 -9 26 -11 29 -5 9 15 -4 40 -25
46 -11 4 -17 11 -13 16 3 6 1 16 -6 24 -8 10 -8 19 0 34 7 14 7 21 0 21 -5 0
-10 7 -10 15 0 8 -7 15 -16 15 -12 0 -15 9 -13 41 3 37 0 43 -21 52 l-25 10
25 6 c30 9 44 -17 35 -61 -5 -21 -3 -28 9 -28 12 0 15 8 11 37 -3 21 1 43 8
51 9 12 9 16 -1 19 -6 3 -10 8 -7 13 8 13 -36 23 -48 11 -16 -16 -47 -13 -47
4 0 8 -4 15 -10 15 -5 0 -10 10 -10 21 0 18 2 19 15 9 13 -11 15 -9 12 9 -5
32 -21 43 -58 38 -31 -4 -32 -5 -11 -12 12 -4 22 -11 22 -16 0 -9 -28 -1 -47
14 -21 16 -15 27 15 28 15 0 36 4 47 9 17 7 15 9 -12 11 -61 3 -59 2 -43 41 5
13 9 17 9 9 1 -15 30 -40 46 -40 6 0 3 5 -5 12 -14 11 -22 67 -10 67 3 0 13
-12 22 -27 17 -27 17 -27 18 -5 0 12 -4 22 -10 22 -5 0 -10 7 -10 15 0 7 -8
18 -17 23 -15 9 -15 12 4 37 l20 28 -34 32 c-23 21 -30 34 -22 37 9 3 8 6 -4
11 -12 5 -17 1 -17 -13 0 -27 -8 -25 -42 10 -15 16 -33 30 -38 30 -6 0 -10 4
-10 9 0 14 21 25 29 15 7 -11 32 -11 49 -1 6 5 12 5 12 0 0 -4 21 -8 47 -8 26
0 48 -6 50 -12 3 -7 11 -9 19 -6 8 3 14 0 14 -7 0 -7 7 -10 15 -7 8 4 17 1 21
-5 4 -7 9 -7 13 0 4 6 15 3 30 -9 16 -13 19 -20 10 -23 -40 -13 -40 -15 -1
-10 27 4 42 2 42 -5 0 -6 -9 -11 -20 -11 -11 0 -20 -4 -20 -9 0 -6 16 -9 35
-8 19 1 35 5 35 10 0 4 -4 7 -9 7 -5 0 -11 9 -14 20 -3 11 -1 20 4 20 5 0 9
-8 9 -17 1 -16 2 -16 15 1 13 17 15 18 15 3 0 -9 5 -17 10 -17 6 0 10 -8 10
-17 1 -15 3 -15 19 5 20 23 51 30 51 11 0 -5 -4 -7 -10 -4 -5 3 -10 1 -10 -4
0 -6 8 -11 19 -11 30 0 41 -21 25 -50 l-14 -25 -6 23 c-6 20 -23 26 -71 25 -7
-1 -13 9 -13 21 -1 20 -2 20 -14 4 -7 -10 -18 -18 -25 -18 -8 0 -8 -5 1 -19 7
-11 16 -17 20 -15 4 3 8 -4 8 -14 0 -20 -62 -58 -79 -48 -4 3 -16 -3 -26 -14
-16 -18 -16 -18 4 -13 21 5 59 -22 47 -35 -4 -3 -10 -1 -14 5 -5 7 -18 10 -31
6 -23 -6 -23 -6 5 -17 l28 -12 -32 -23 c-24 -17 -32 -30 -32 -52 0 -18 4 -28
10 -24 6 4 10 -5 10 -19 0 -17 6 -26 16 -26 8 0 12 -5 9 -10 -3 -6 1 -13 9
-16 9 -3 14 -10 11 -14 -9 -15 7 -40 26 -40 10 0 22 -8 28 -17 14 -26 25 -9
11 17 -6 12 -9 33 -6 46 4 16 1 30 -9 41 -9 8 -19 28 -22 44 -4 20 -13 31 -29
35 -29 7 -31 20 -4 34 17 9 20 8 20 -7 0 -15 2 -16 10 -3 9 13 11 13 20 0 5
-8 8 -21 5 -28 -5 -13 13 -52 28 -63 5 -3 11 -26 14 -50 3 -24 10 -52 15 -62
7 -14 5 -22 -7 -31 -15 -11 -16 -16 -5 -35 10 -21 10 -22 -6 -13 -9 5 -25 7
-35 5 -11 -3 -19 0 -19 6 0 6 -7 11 -15 11 -8 0 -15 -3 -15 -7 0 -13 20 -39
20 -28 0 6 7 1 15 -9 13 -17 15 -18 15 -3 0 9 5 17 11 17 5 0 9 -8 8 -18 -3
-30 1 -35 16 -22 12 10 15 10 15 -4 0 -9 5 -16 11 -16 6 0 8 9 4 20 -3 11 -2
20 4 20 14 0 19 -11 27 -60 5 -31 4 -41 -4 -36 -7 4 -12 15 -12 25 0 21 -39
36 -54 21 -6 -6 -14 -3 -22 8 -10 14 -15 15 -25 4 -7 -6 -22 -13 -33 -13 -17
-1 -18 -2 -3 -6 18 -5 20 -13 17 -50 -1 -15 4 -23 14 -23 9 0 16 -4 16 -10 0
-5 12 -16 28 -24 19 -11 22 -15 10 -16 -25 0 -22 -16 5 -25 21 -7 20 -8 -8
-14 l-30 -8 43 -17 c43 -19 52 -30 30 -39 -7 -3 -1 -6 15 -6 15 -1 27 4 27 12
0 9 3 8 9 -2 7 -10 10 -10 13 -1 3 10 9 10 25 1 27 -14 543 -16 543 -2 0 5 -6
12 -12 14 -8 4 -7 6 3 6 9 1 30 -6 45 -14 36 -19 107 -20 102 -2 -3 6 -19 13
-36 14 -17 0 -41 11 -54 23 l-23 23 25 -8 c14 -4 40 -9 58 -12 31 -5 32 -4 32
30 0 31 -5 38 -32 51 -18 8 -44 17 -58 20 -31 7 -56 23 -49 31 3 3 19 -1 35
-10 16 -8 40 -15 55 -15 14 0 30 -5 35 -10 8 -8 11 5 11 39 1 38 -3 51 -16 54
-14 4 -14 5 2 6 24 1 22 21 -3 21 -11 0 -20 4 -20 9 0 5 9 7 20 4 19 -5 20 0
20 130 0 99 -3 137 -12 140 -10 4 -10 6 0 6 8 1 12 23 12 76 l0 75 -40 0 c-29
0 -40 4 -40 15 0 8 7 15 15 15 8 0 15 -4 15 -10 0 -5 9 -10 21 -10 14 0 19 5
17 17 -3 15 -21 29 -63 47 -6 3 -3 9 5 15 13 9 12 11 -3 11 -11 0 -30 9 -44
20 -14 11 -34 20 -44 20 -10 0 -21 5 -24 10 -4 6 6 10 22 10 22 0 25 2 13 10
-19 12 -81 13 -100 0 -13 -8 -11 -12 10 -27 13 -10 38 -23 55 -30 16 -6 24
-12 17 -12 -7 -1 -11 -5 -7 -10 7 -13 -15 -26 -24 -14 -3 5 -32 24 -64 42 -46
26 -61 31 -70 21 -9 -10 -9 -14 1 -17 7 -3 18 -11 26 -18 7 -8 25 -17 40 -21
38 -9 33 -28 -5 -20 -17 3 -38 6 -46 6 -8 0 -11 5 -8 11 4 6 -3 13 -14 16 -15
4 -20 11 -16 23 8 24 -11 35 -23 14 -7 -12 -20 -15 -49 -13 -24 3 -45 -1 -52
-8 -14 -15 -47 -17 -56 -3 -8 13 -21 13 -37 -2 -15 -15 -80 -40 -86 -34 -6 6
13 38 22 36 15 -4 66 12 66 21 0 5 -11 11 -25 15 -28 7 -29 27 0 32 10 3 15 0
11 -7 -4 -6 5 -16 20 -23 22 -10 28 -10 32 0 2 6 16 12 30 13 24 0 23 2 -10
12 -25 8 -35 16 -30 24 9 14 72 20 90 9 19 -11 35 3 22 20 -25 29 -3 34 25 6
33 -33 65 -44 72 -24 3 6 -2 12 -11 12 -9 0 -16 5 -16 10 0 6 -6 10 -13 10 -7
0 -18 9 -25 20 -7 11 -18 20 -25 20 -8 0 -19 10 -26 23 -12 23 -104 77 -130
77 -17 0 -79 29 -113 52 -14 10 -35 18 -47 18 -11 0 -24 6 -28 13 -4 8 -16 16
-25 20 -10 3 -18 11 -18 17 0 6 12 4 30 -5 16 -8 36 -15 44 -15 8 0 16 -3 18
-7 2 -7 73 -44 88 -48 3 0 25 -10 50 -21 25 -11 57 -24 73 -27 16 -5 27 -14
27 -24 0 -9 3 -13 7 -10 3 4 12 2 20 -4 10 -9 13 -6 14 12 l0 24 11 -22 c6
-13 15 -23 20 -23 5 0 1 14 -8 31 -12 24 -13 37 -6 54 9 20 8 21 -14 17 -17
-3 -24 0 -24 11 0 9 5 19 10 22 8 5 7 11 -1 21 -6 8 -8 14 -4 14 4 0 2 7 -5
15 -7 8 -16 12 -21 9 -5 -3 -6 2 -2 11 3 10 0 21 -7 25 -7 4 -9 13 -5 20 6 9
10 9 17 -1 7 -10 8 -8 3 7 -3 12 0 33 6 47 10 21 9 31 -4 51 -15 22 -15 25 1
31 12 5 13 9 5 12 -7 3 -13 13 -13 23 0 10 -6 20 -13 23 -7 2 -8 8 -3 13 5 5
11 4 13 -3 8 -22 43 -15 43 7 0 11 -5 20 -11 20 -8 0 -8 4 0 14 8 10 9 16 1
21 -16 10 -12 28 5 21 12 -4 14 0 11 19 -2 13 1 26 7 29 7 3 2 3 -10 0 -18 -4
-22 -2 -17 10 3 8 15 18 26 22 14 4 17 9 9 13 -6 4 -9 15 -5 24 4 12 1 17 -10
17 -9 0 -16 7 -16 15 0 20 27 19 38 -1 8 -15 10 -15 15 0 4 10 3 15 -2 12 -4
-3 -14 5 -21 18 -10 19 -10 31 1 60 7 20 16 36 21 36 7 0 155 -59 261 -105 21
-8 60 -24 87 -35 l50 -20 0 188 0 188 -62 19 c-35 10 -76 24 -93 31 -16 8
-102 39 -190 70 -88 31 -169 60 -180 64 -11 5 -31 12 -45 16 -14 3 -56 21 -95
39 -38 18 -95 40 -125 48 -113 32 -226 69 -245 82 -11 7 -36 16 -55 20 -19 4
-75 23 -125 42 -49 20 -157 59 -240 88 -82 29 -229 81 -325 115 -96 33 -211
74 -255 89 -44 16 -156 55 -250 89 -199 71 -548 190 -758 259 l-148 48 6 30
c17 86 17 153 0 199 -10 25 -21 46 -25 46 -4 0 -11 12 -15 28 -9 37 -47 92
-64 92 -7 0 -21 11 -32 24 -10 13 -31 29 -47 35 -16 7 -34 23 -40 37 -7 13
-17 24 -23 24 -6 0 -41 14 -78 32 -83 40 -169 48 -262 23 -35 -9 -81 -21 -101
-26 -62 -15 -221 -125 -252 -175 -15 -24 -33 -41 -39 -39 -7 2 -61 19 -122 38
-310 99 -354 110 -340 86 8 -12 121 -65 210 -98 33 -13 69 -27 80 -31 61 -27
153 -60 163 -60 7 0 12 -4 12 -9 0 -11 -64 8 -150 44 -36 16 -96 38 -135 51
-38 12 -108 36 -155 54 -47 17 -107 40 -135 50 -27 10 -51 23 -53 29 -2 5 -9
8 -16 5 -7 -3 -55 12 -107 31 -193 75 -275 107 -314 125 -22 10 -57 26 -77 35
-36 16 -50 35 -28 35 6 0 36 -9 68 -21 149 -53 174 -61 179 -55 4 3 1 6 -6 6
-7 0 -51 18 -98 41 -60 29 -87 48 -94 66 -5 13 -7 28 -4 33 8 12 7 166 -2 425
-10 310 -10 719 0 818 8 72 10 77 35 84 14 3 89 1 166 -6 191 -17 362 -25 354
-16 -3 4 -78 12 -165 18 -128 10 -158 15 -158 27 0 8 -8 16 -17 18 -11 2 -18
-3 -18 -12 0 -14 -10 -15 -72 -10 -92 9 -122 19 -114 40 3 9 6 37 6 64 l0 48
78 20 c42 12 131 37 197 57 335 102 315 98 460 86 72 -6 245 -18 385 -27 140
-8 296 -19 345 -24 162 -16 331 -22 320 -12 -5 6 -59 17 -120 26 -200 29 -367
60 -460 86 -22 6 -118 21 -212 34 -183 26 -218 36 -168 47 17 4 131 34 255 67
279 75 517 137 725 191 88 23 169 45 180 50 11 5 52 16 90 25 39 10 86 21 105
26 61 15 418 113 585 161 55 15 145 40 200 53 96 25 329 87 445 119 70 20 201
55 354 96 65 17 122 34 126 36 3 2 87 25 186 50 98 26 213 55 254 67 41 11 91
24 110 29 122 29 180 45 186 52 11 11 56 8 49 -3 -3 -5 -15 -10 -25 -10 -14 0
-19 -6 -17 -21 1 -12 -5 -24 -13 -26 -13 -4 -13 -3 0 6 26 18 4 23 -51 11 -30
-6 -65 -12 -79 -14 -44 -5 -45 -6 -30 -16 13 -8 11 -11 -7 -16 -27 -8 -30 -19
-6 -28 13 -6 14 -9 4 -15 -10 -6 -9 -11 3 -24 24 -23 20 -27 -26 -29 l-43 -1
40 -4 c22 -3 44 -9 49 -14 13 -12 63 -11 71 2 4 6 17 14 29 19 20 8 20 9 -4 9
l-25 1 28 18 c15 10 24 22 20 25 -10 11 33 8 64 -4 25 -10 26 -12 8 -18 -16
-7 -13 -9 15 -16 27 -6 30 -9 15 -12 -11 -3 -24 -9 -29 -14 -13 -12 -29 -12
-22 0 6 10 -24 25 -32 16 -3 -3 0 -5 6 -5 19 0 14 -18 -5 -23 -10 -2 8 -7 40
-11 45 -7 57 -12 57 -26 0 -19 26 -30 66 -25 15 1 23 -2 21 -9 -2 -6 -16 -12
-31 -14 -28 -4 -28 -4 -7 -18 12 -8 26 -12 33 -8 6 4 8 3 4 -4 -10 -16 -88
-11 -81 6 2 7 0 10 -5 7 -17 -11 -11 -25 16 -37 22 -10 24 -14 10 -23 -13 -10
-10 -14 19 -25 34 -13 39 -24 36 -62 -2 -14 5 -18 34 -18 20 0 43 -6 50 -14
12 -11 7 -13 -33 -9 -49 5 -75 25 -65 49 3 9 -1 14 -12 14 -9 0 -13 -5 -9 -11
3 -6 0 -15 -7 -20 -9 -6 -10 -9 -2 -9 6 0 18 -6 26 -14 16 -17 99 -46 130 -46
21 0 21 -1 -3 -13 -14 -7 -26 -9 -28 -5 -2 4 -10 8 -18 8 -10 0 -14 -12 -14
-40 0 -39 1 -40 35 -40 24 0 35 -5 35 -15 0 -8 5 -15 10 -15 14 0 12 28 -2 33
-10 3 -9 9 3 23 10 10 19 28 21 39 2 15 12 21 43 23 22 2 44 7 48 11 5 5 -17
7 -48 5 -35 -2 -54 0 -50 6 3 6 26 10 51 10 24 0 44 5 44 10 0 6 -11 10 -25
10 -14 0 -25 5 -25 10 0 6 11 10 24 10 35 0 43 20 9 21 -16 1 -21 3 -11 6 21
5 20 45 -2 56 -9 4 -5 6 12 4 15 -2 29 1 32 8 2 7 22 15 43 18 21 3 52 9 70
13 29 6 31 8 17 22 -13 13 -14 16 -2 23 10 5 13 21 12 46 -2 21 0 33 4 27 4
-6 14 -14 22 -17 12 -4 11 -6 -2 -6 -29 -1 -21 -21 8 -21 16 0 24 5 21 13 -2
6 3 17 12 24 14 10 12 11 -8 6 -19 -5 -22 -2 -19 13 2 11 13 20 26 22 12 2 22
10 22 18 0 8 -4 13 -9 9 -5 -3 -12 -1 -16 5 -3 5 0 10 8 10 10 0 14 12 13 43
-1 23 -5 48 -9 55 -5 7 -4 12 2 12 6 0 11 16 11 36 0 21 -4 33 -10 29 -6 -4
-8 -11 -5 -16 4 -5 0 -9 -7 -9 -8 0 -13 12 -13 33 0 19 -6 35 -15 39 -9 4 -3
7 18 7 29 1 32 4 32 31 0 24 -4 30 -22 31 l-23 0 23 11 c21 11 22 16 22 135
l0 123 -4800 0 -4800 0 0 -995z m4565 -2511 c116 -47 284 -114 375 -150 513
-200 482 -186 475 -209 -3 -11 -9 -48 -12 -83 -5 -54 -9 -65 -28 -72 -30 -12
-37 -24 -36 -68 1 -69 -9 -112 -28 -112 -9 0 -22 5 -27 10 -6 6 -31 12 -55 13
-24 1 -46 4 -49 7 -14 14 -130 46 -165 45 -34 0 -41 -4 -43 -23 -2 -12 -8 -22
-13 -22 -5 0 -9 -4 -9 -10 0 -5 15 -10 34 -10 19 0 38 -4 41 -10 4 -6 -7 -10
-24 -10 -31 0 -42 -14 -18 -23 7 -4 6 -6 -5 -6 -9 -1 -18 4 -20 10 -2 5 -11 7
-21 4 -9 -4 -14 -12 -11 -17 9 -14 -114 -2 -133 13 -8 7 -22 14 -31 15 -82 13
-115 16 -137 10 -44 -11 -17 -25 36 -19 42 5 55 2 79 -16 16 -12 50 -24 75
-28 105 -14 30 -22 -187 -20 -209 2 -233 4 -230 19 2 12 -7 17 -38 20 -22 2
-40 0 -40 -4 0 -4 -7 -5 -15 -2 -22 9 -9 22 29 30 22 4 36 13 39 25 4 13 15
20 36 21 17 1 45 2 61 3 46 3 49 15 4 17 -21 1 -49 2 -61 3 -12 0 -25 4 -29 8
-4 4 -21 7 -38 6 -30 -1 -31 -1 -6 -10 21 -7 20 -8 -9 -4 -18 3 -43 5 -54 5
-14 0 -18 3 -11 10 12 12 194 31 225 23 18 -5 20 -3 14 16 -7 22 -3 24 33 15
26 -7 30 -24 5 -24 -16 -1 -16 -2 2 -16 14 -11 15 -15 5 -14 -37 5 -44 0 -21
-16 17 -12 26 -13 34 -5 14 14 37 14 37 1 0 -5 -9 -10 -20 -10 -11 0 -20 -5
-20 -11 0 -8 12 -9 38 -3 64 13 126 13 157 -1 17 -7 48 -16 70 -19 22 -3 50
-9 63 -12 12 -4 22 -2 22 3 0 10 -73 37 -127 48 -62 12 -25 55 47 55 35 0 50
19 21 27 -12 3 -21 9 -21 14 0 4 -17 11 -37 15 -21 4 -42 12 -48 18 -6 6 -37
11 -68 10 -31 0 -57 3 -57 6 0 4 -21 3 -47 -1 -36 -7 -52 -6 -70 6 -13 9 -23
13 -23 10 0 -3 -12 6 -27 20 -18 16 -39 25 -60 25 -33 0 -55 23 -46 47 2 7 0
21 -6 32 -6 11 -13 114 -16 240 -5 205 -4 221 13 221 9 0 112 -39 227 -86z
m-2318 -246 c7 -5 21 -7 33 -3 12 4 20 2 20 -5 0 -7 7 -10 15 -7 8 4 17 2 20
-3 3 -4 -1 -10 -7 -13 -21 -7 -4 -17 35 -19 20 -2 37 -6 37 -10 0 -3 10 -4 22
0 17 4 20 2 15 -11 -8 -20 47 -41 72 -27 15 9 15 9 -1 10 -9 0 -19 4 -22 8 -3
5 22 7 56 5 51 -3 64 0 80 17 21 22 27 24 55 13 15 -6 13 -9 -12 -14 l-30 -7
32 -1 c17 0 33 -5 35 -11 5 -15 171 -35 176 -21 4 13 51 14 72 1 11 -7 4 -10
-27 -10 -43 0 -58 -14 -25 -24 9 -3 53 -7 97 -11 154 -11 198 -15 203 -20 3
-3 -7 -5 -21 -5 -15 0 -27 -4 -27 -10 0 -5 -7 -10 -16 -10 -8 0 -13 3 -11 8 3
4 -25 7 -61 6 -37 0 -92 3 -122 8 -97 15 -154 21 -205 21 -38 0 -44 2 -27 8
37 14 26 28 -14 17 -64 -17 -155 -13 -234 11 -94 28 -192 40 -390 47 -174 7
-379 20 -337 22 32 2 37 22 5 23 -18 1 -19 2 -5 6 9 2 15 9 12 14 -8 12 8 12
21 -1 8 -8 202 4 211 14 7 7 260 -8 270 -16z m3968 -22 c9 -9 23 -16 31 -16 8
0 14 -7 14 -15 0 -19 5 -19 41 2 15 9 32 13 36 9 14 -14 7 -160 -11 -216 -18
-58 -14 -120 7 -120 8 0 11 -16 9 -50 -3 -32 -8 -48 -15 -43 -6 4 -8 0 -4 -10
3 -9 2 -19 -3 -22 -13 -8 -13 -75 -1 -94 8 -12 11 -9 16 12 4 15 11 27 16 27
5 0 9 5 9 11 0 6 -9 9 -20 6 -25 -6 -25 -2 0 30 11 14 17 29 15 33 -14 22 22
16 116 -20 57 -22 113 -44 124 -49 11 -5 58 -24 105 -41 47 -18 99 -38 117
-46 17 -8 35 -14 41 -14 5 0 36 -13 68 -30 32 -16 64 -30 70 -30 11 0 249 -90
299 -114 17 -8 46 -20 65 -27 19 -6 58 -22 85 -34 28 -12 95 -39 150 -60 55
-21 118 -46 140 -56 22 -10 87 -37 145 -59 58 -23 133 -55 168 -71 34 -16 65
-29 69 -29 4 0 25 -9 47 -19 23 -10 62 -27 89 -36 41 -15 63 -35 40 -35 -5 0
-19 -3 -33 -6 -20 -5 -22 -4 -10 6 13 10 13 11 0 7 -9 -2 -14 -13 -12 -25 2
-13 -2 -22 -9 -22 -7 0 -10 -3 -7 -6 4 -3 20 2 37 11 35 18 59 12 40 -11 -13
-16 -20 -144 -8 -144 5 0 9 5 9 11 0 7 8 18 18 25 9 7 13 14 7 14 -15 0 -9 82
7 94 8 6 13 17 11 24 -5 14 -2 15 21 6 9 -3 13 -10 10 -15 -3 -5 -1 -9 4 -9
15 0 22 -41 11 -63 -9 -16 -8 -18 10 -12 16 5 21 2 21 -10 0 -12 -5 -15 -16
-11 -12 4 -15 2 -10 -9 3 -9 -3 -19 -15 -26 -16 -8 -18 -14 -10 -22 17 -17 13
-42 -9 -62 -12 -11 -20 -13 -20 -6 0 7 -4 9 -10 6 -6 -4 -10 7 -10 25 0 28 -2
30 -20 20 -11 -6 -20 -17 -20 -25 0 -18 -26 -20 -33 -2 -4 7 -6 6 -6 -4 -1
-22 25 -44 34 -29 5 8 13 5 26 -9 23 -24 24 -35 4 -28 -8 4 -17 2 -21 -4 -3
-6 -17 -14 -31 -20 -19 -7 -24 -15 -22 -37 4 -51 -11 -83 -42 -89 -16 -3 -29
-9 -29 -14 0 -4 -9 -11 -20 -14 -22 -7 -27 -31 -7 -38 6 -2 9 -8 5 -12 -4 -4
-18 6 -32 21 -14 16 -26 23 -26 16 0 -7 -7 -20 -15 -29 -8 -8 -13 -19 -10 -24
13 -20 -16 -7 -37 16 -15 17 -32 25 -54 25 -19 0 -50 9 -69 20 -20 11 -39 18
-43 16 -4 -2 -30 6 -57 20 -28 13 -45 24 -40 25 6 1 -8 7 -30 14 -22 8 -33 14
-25 14 29 2 -13 21 -47 21 -17 0 -34 4 -37 8 -3 5 -20 7 -38 5 -18 -1 -27 0
-20 3 21 10 13 24 -13 24 -18 0 -25 5 -25 19 0 14 -9 21 -31 26 -30 7 -54 -1
-28 -9 44 -13 50 -17 44 -26 -7 -12 -55 -13 -72 -2 -6 4 -11 16 -10 27 1 14
-3 19 -17 17 -10 -2 -15 1 -12 7 4 6 21 8 39 5 l32 -5 -29 17 c-20 11 -43 15
-72 11 -31 -3 -44 0 -48 9 -9 23 -39 17 -33 -6 3 -13 0 -20 -10 -20 -9 0 -13
6 -9 15 7 20 -18 19 -39 -1 -8 -9 -22 -13 -30 -10 -28 10 -155 -38 -176 -67
-8 -11 -192 6 -311 28 -47 9 -47 5 -12 -96 14 -41 32 -106 39 -145 8 -40 28
-98 44 -130 43 -84 59 -150 42 -166 -8 -7 -11 -8 -8 -2 4 6 0 19 -7 30 -8 10
-12 24 -9 31 3 7 0 13 -7 13 -6 0 -8 5 -5 11 8 13 -37 109 -81 172 -19 26 -34
52 -34 57 0 6 -4 10 -10 10 -5 0 -13 12 -16 28 -4 15 -11 33 -17 40 -6 8 -6
12 2 12 6 0 11 4 11 9 0 5 -8 8 -17 7 -13 -1 -22 15 -35 64 -11 36 -22 85 -25
110 -3 25 -9 47 -13 50 -4 3 -15 30 -25 60 -9 30 -24 65 -31 78 -8 12 -12 22
-8 22 12 0 74 -71 74 -85 0 -8 5 -15 10 -15 6 0 14 -8 17 -17 10 -26 41 -56
59 -59 22 -3 31 -14 11 -14 -22 0 -21 -6 3 -30 12 -12 25 -18 30 -15 6 4 10 3
10 -2 0 -4 15 -9 34 -10 31 -3 34 -1 29 20 -3 12 -2 19 2 15 5 -4 14 -3 22 3
7 6 13 7 13 2 0 -5 17 -9 38 -10 114 -3 188 -9 200 -16 8 -6 12 -4 10 5 -2 9
15 14 65 16 48 2 70 7 74 17 3 8 11 15 18 15 8 0 16 4 19 8 7 12 -53 72 -71
72 -23 0 -10 -23 18 -32 18 -6 15 -6 -10 -3 -19 3 -44 16 -57 30 -13 14 -32
25 -44 25 -23 0 -26 -10 -8 -28 7 -7 9 -12 4 -12 -4 0 -14 7 -22 15 -9 8 -29
15 -45 15 -16 0 -29 4 -29 8 0 5 17 8 38 8 57 -1 54 18 -4 25 -28 4 -60 11
-70 17 -18 11 -18 11 4 12 22 0 32 20 10 20 -7 0 -24 3 -37 7 -15 4 -22 2 -18
-4 4 -7 -3 -8 -21 -3 -50 13 -92 34 -92 47 0 8 -13 13 -32 14 -18 0 -27 3 -20
6 19 7 4 23 -22 23 -23 0 -54 25 -43 36 3 3 23 -4 46 -16 23 -11 41 -16 41
-11 0 4 -22 20 -50 33 -49 24 -50 25 -50 4 0 -14 -3 -17 -11 -9 -8 8 -5 22 10
51 12 23 21 52 21 65 0 35 -59 78 -113 82 -23 2 -44 4 -47 5 -3 0 2 5 10 10
15 9 15 10 -59 109 -18 24 -21 33 -10 29 9 -4 16 -1 16 7 0 7 -12 16 -27 19
-15 3 -41 17 -59 31 -31 27 -61 28 -61 2 0 -19 -42 -40 -70 -35 -20 2 -30 -8
-63 -65 -22 -38 -60 -90 -86 -117 -46 -48 -157 -117 -169 -105 -4 3 0 10 8 16
11 7 6 8 -15 3 -38 -9 -43 -13 -25 -24 12 -8 11 -10 -5 -11 -23 -2 -27 -2 -78
-13 -34 -7 -40 -5 -64 20 -23 25 -24 29 -10 32 18 4 24 22 7 22 -15 0 57 68
80 75 11 3 20 11 20 16 0 6 17 26 37 45 33 32 38 33 44 17 7 -16 8 -15 8 4 1
12 6 25 11 28 26 16 2 80 -58 153 -19 23 -29 42 -23 42 8 0 10 8 6 20 -3 10
-1 28 5 40 7 13 7 20 0 20 -5 0 -10 5 -10 12 0 9 3 9 12 0 7 -7 20 -12 30 -12
10 0 18 -4 18 -10 0 -5 11 -10 25 -10 31 0 48 -34 50 -102 1 -26 3 -50 6 -52
2 -2 19 -6 38 -8 37 -3 55 16 23 24 -15 4 -19 12 -15 32 3 14 -2 41 -11 60 -9
19 -16 41 -16 50 0 9 -4 16 -9 16 -5 0 -12 10 -16 23 l-8 22 -4 -22 c-4 -23
-33 -33 -33 -13 0 6 -19 20 -42 30 -24 11 -38 20 -33 20 6 0 3 5 -5 10 -13 9
-13 12 2 23 9 8 17 22 18 33 7 138 12 190 20 198 6 6 10 18 10 28 0 14 8 18
40 18 29 0 40 4 40 15 0 8 6 15 13 15 14 0 37 40 37 65 0 8 7 15 15 15 10 0
15 10 15 29 0 45 25 64 76 58 24 -2 50 -12 59 -21z m-1120 -576 c-3 -5 1 -10
9 -10 9 0 16 5 16 10 0 6 12 10 26 10 14 0 23 -4 19 -10 -3 -5 -1 -10 4 -10 6
0 11 -4 11 -10 0 -5 -7 -7 -15 -4 -57 22 49 -82 130 -127 33 -18 66 -39 73
-46 7 -7 25 -13 39 -13 19 0 24 -4 19 -16 -3 -9 -9 -27 -12 -40 -7 -29 -24
-32 -24 -5 0 23 -41 35 -117 34 -38 0 -53 3 -53 13 0 10 9 12 33 7 17 -3 29
-2 24 2 -4 5 -26 12 -50 16 l-42 6 48 2 c34 1 47 5 47 16 0 11 -12 15 -42 15
-24 0 -52 8 -63 16 -19 15 -18 16 15 10 l35 -7 -30 17 c-16 9 -34 23 -38 30
-4 8 -15 14 -24 14 -9 0 -22 8 -29 17 -7 10 -16 15 -20 11 -4 -4 -2 -14 5 -22
9 -11 8 -15 -5 -20 -11 -4 -18 0 -21 14 -3 12 -20 24 -44 31 -44 14 -42 33 3
24 21 -5 28 -4 24 4 -4 6 -15 12 -24 12 -9 1 -3 5 13 9 44 11 67 11 60 0z
m-403 -242 c41 -51 58 -81 58 -103 0 -9 7 -23 15 -31 8 -9 15 -30 15 -48 0
-17 4 -36 9 -41 5 -6 18 -37 31 -70 12 -33 25 -64 30 -70 4 -5 11 -27 15 -48
6 -28 10 -35 17 -25 6 8 7 4 1 -12 -4 -14 -6 -55 -5 -92 2 -47 0 -68 -8 -68
-7 0 -9 7 -6 17 8 20 -14 36 -30 22 -9 -7 -19 0 -35 23 -13 18 -29 37 -36 41
-20 12 -16 25 10 29 18 2 21 8 19 33 -8 69 -44 150 -87 195 -29 30 -46 58 -50
83 -4 20 -10 37 -14 37 -4 0 -5 16 -3 35 3 27 1 35 -11 35 -9 0 -19 -4 -22
-10 -12 -20 -25 -9 -25 20 0 17 -4 30 -10 30 -5 0 -10 10 -10 23 0 19 6 23 37
25 21 2 39 5 42 7 10 10 20 3 53 -37z m-1682 -107 c34 -32 41 -80 13 -82 -116
-7 -126 -20 -36 -41 38 -9 54 -19 66 -41 22 -37 23 -64 3 -48 -11 9 -15 9 -19
-1 -4 -8 -6 -7 -6 4 -1 23 -54 45 -118 51 -41 3 -54 0 -67 -15 -9 -10 -16 -23
-16 -28 0 -6 -7 -10 -15 -10 -8 0 -15 6 -15 13 0 24 -83 59 -131 57 -24 -2
-59 1 -78 5 -30 7 -31 9 -15 19 11 5 45 11 77 12 57 3 85 12 60 21 -15 5 -18
33 -4 33 5 0 11 -5 13 -11 3 -9 18 -9 58 0 30 7 65 14 78 17 17 3 22 11 22 35
0 23 4 30 14 26 8 -3 27 -2 43 3 41 12 41 12 73 -19z m-113 -286 c26 -20 57
-38 70 -40 13 -3 34 -7 47 -10 31 -6 41 -63 21 -113 -8 -19 -15 -49 -15 -67 0
-31 -15 -74 -43 -120 -8 -13 -25 -21 -51 -23 -24 -3 -49 -13 -65 -28 -14 -13
-34 -27 -43 -30 -10 -3 -18 -10 -18 -15 0 -14 -68 -11 -99 6 -39 20 -45 40
-15 54 27 12 32 46 9 55 -22 8 -19 26 4 26 11 0 22 3 24 8 3 4 48 7 101 7 70
0 96 3 96 13 0 6 -5 12 -12 12 -6 0 -4 7 5 18 21 23 21 32 -3 60 -11 14 -24
20 -31 16 -9 -5 -10 -2 -6 9 6 17 -17 25 -27 9 -6 -10 -86 -2 -86 9 0 5 -7 9
-15 9 -8 0 -15 5 -15 10 0 6 5 10 11 10 6 0 9 7 6 15 -5 11 3 14 37 13 44 -1
66 6 66 21 0 14 -43 21 -56 10 -9 -7 -19 -7 -33 1 -30 15 -26 24 15 39 36 13
37 13 73 -27 35 -38 38 -39 49 -21 19 30 15 39 -34 59 -25 11 -42 24 -39 30
10 17 24 12 72 -25z m-804 -487 c21 -11 131 -35 210 -45 20 -3 37 -9 37 -15 0
-14 -21 -51 -36 -63 -7 -5 -14 -19 -16 -30 -2 -12 -23 -31 -51 -46 -26 -14
-62 -40 -80 -57 -18 -18 -37 -32 -43 -32 -13 0 -34 99 -36 170 -1 31 -10 69
-20 88 -10 18 -18 35 -18 37 0 9 31 5 53 -7z m-70 -182 c3 -30 13 -68 22 -86
14 -26 14 -37 5 -60 -18 -43 -33 -53 -190 -120 -80 -34 -170 -73 -200 -87 -30
-14 -73 -32 -95 -41 -22 -9 -42 -18 -45 -22 -3 -3 -36 -20 -75 -37 -65 -29
-129 -58 -295 -135 -145 -68 -256 -118 -270 -123 -3 -1 -21 -9 -40 -18 -122
-56 -158 -70 -194 -74 l-41 -5 25 21 c28 22 156 86 245 122 33 13 66 30 73 36
7 7 17 13 22 13 4 0 43 16 87 36 43 19 105 47 138 61 33 15 114 53 180 85 66
33 174 82 240 110 66 27 161 70 211 94 51 24 96 44 101 44 5 0 17 25 28 55 18
55 18 55 -3 85 -24 33 -29 99 -11 147 l11 28 32 -38 c26 -29 34 -49 39 -91z
m6187 97 c0 -9 -9 -26 -19 -37 -18 -19 -32 -98 -20 -110 12 -12 79 -14 79 -3
0 7 5 4 10 -5 6 -9 24 -19 40 -23 17 -4 30 -10 30 -15 0 -4 16 -11 35 -14 23
-5 43 -18 61 -41 15 -19 33 -35 41 -35 18 0 93 -38 93 -48 0 -8 49 -32 67 -32
7 0 10 -6 7 -13 -6 -16 63 -11 84 6 9 7 11 6 6 -7 -4 -10 -16 -21 -28 -25 -19
-7 -137 3 -196 17 -23 5 -22 6 10 11 40 7 32 16 -23 26 -30 6 -41 4 -51 -10
-10 -14 -21 -16 -49 -11 -21 4 -37 11 -37 16 0 13 13 13 27 -1 6 -6 17 -9 24
-7 24 8 -37 58 -69 58 -18 0 -32 6 -36 15 -7 20 21 32 37 16 17 -17 37 -13 37
9 0 22 25 28 33 8 3 -8 6 -6 6 5 1 12 -7 17 -23 17 -14 0 -28 5 -31 10 -3 6
-21 10 -40 10 -18 0 -41 7 -50 16 -21 21 -185 62 -228 57 -69 -9 -102 -8 -100
4 2 6 -5 14 -15 17 -33 11 -92 15 -92 7 0 -4 -15 -8 -32 -8 -18 0 -27 2 -20 5
6 2 12 10 12 17 0 10 16 14 63 13 75 -2 147 10 147 24 0 6 6 8 13 5 46 -17 57
-18 57 -4 0 9 -6 18 -12 20 -11 5 9 9 28 6 4 0 10 5 15 12 15 25 21 1 9 -35
-11 -34 -8 -56 9 -56 4 0 16 19 27 43 34 79 64 112 64 70z m-1439 -420 c-6
-21 -11 -74 -11 -118 0 -44 -5 -98 -11 -120 -12 -50 -28 -268 -34 -485 -5
-170 -21 -310 -36 -310 -5 0 -6 20 -3 44 7 48 -11 160 -33 214 -7 17 -10 32
-7 32 4 0 1 7 -6 15 -14 17 -3 38 16 31 31 -12 30 57 -1 87 -24 24 -30 93 -11
113 13 12 20 14 29 5 6 -6 15 -11 19 -11 10 0 11 34 1 44 -11 11 -12 137 -1
180 8 34 6 42 -19 80 -15 22 -33 47 -40 54 -7 7 -10 19 -6 27 4 11 -4 17 -28
22 l-34 7 45 11 c37 10 47 10 56 -2 9 -11 13 -6 16 22 2 22 -1 40 -9 47 -7 6
-13 17 -13 24 0 19 49 18 56 -1 4 -8 17 -15 29 -15 18 0 25 7 31 33 4 17 9 27
11 20 2 -6 0 -29 -6 -50z m-4873 -5 c-51 -63 -138 -187 -138 -197 0 -5 -7 -15
-16 -22 -9 -8 -32 -47 -50 -88 -28 -59 -34 -86 -34 -140 -1 -49 -5 -72 -19
-88 -25 -30 -528 -286 -533 -271 -3 7 -10 8 -17 4 -10 -7 -11 -10 -1 -16 8 -5
1 -10 -20 -15 -22 -5 -35 -3 -40 5 -4 7 -13 9 -20 5 -9 -5 -11 -4 -6 3 4 7 3
12 -3 12 -5 0 -13 -5 -16 -10 -5 -8 -11 -8 -20 0 -16 14 -26 50 -13 50 17 0 3
23 -21 31 -14 6 -20 5 -16 -1 4 -6 -13 -10 -42 -9 -33 0 -42 3 -28 8 19 8 19
8 0 19 -11 6 -15 12 -8 12 6 0 9 9 6 20 -5 20 -19 25 -58 21 -20 -2 -20 -2 0
13 16 12 17 15 5 16 -9 0 -21 -5 -27 -11 -7 -7 -22 -4 -52 11 -22 12 -44 26
-47 31 -3 6 -14 7 -24 4 -10 -3 -21 -1 -25 4 -6 11 64 51 89 51 8 0 19 6 23
13 8 14 39 31 158 87 50 24 82 33 112 31 36 -2 42 1 45 21 3 24 15 32 183 109
137 63 224 104 413 195 95 46 179 84 185 84 7 1 32 12 57 25 25 13 47 24 49
25 2 0 -12 -19 -31 -42z m6185 -13 c45 -4 63 -15 24 -15 -17 0 -27 -5 -27 -14
0 -8 -5 -16 -12 -18 -23 -8 2 -25 56 -37 31 -7 65 -10 76 -6 11 4 20 2 20 -4
0 -18 20 -12 21 7 1 16 2 16 6 0 2 -10 13 -18 24 -18 10 0 19 -4 19 -10 0 -5
-9 -10 -21 -10 -32 0 -17 -21 26 -36 47 -16 56 -17 33 -3 -21 12 -24 28 -5 25
41 -9 67 -28 73 -53 4 -15 12 -34 18 -42 9 -12 8 -13 -6 -8 -10 3 -24 0 -33
-9 -20 -21 -51 -9 -59 21 -4 14 -11 25 -16 25 -13 0 -13 -7 1 -31 9 -18 8 -19
-8 -10 -28 16 -53 37 -53 45 0 3 8 6 18 6 14 0 15 2 2 10 -9 6 -17 5 -22 -3
-6 -9 -13 -6 -26 10 -9 12 -29 25 -45 29 -15 3 -31 12 -35 18 -9 15 -72 42
-90 38 -7 -2 -11 2 -10 8 2 7 -5 17 -16 23 -38 25 -78 67 -63 67 9 0 19 -4 22
-10 7 -12 26 -14 24 -2 -3 19 3 24 24 17 12 -4 39 -8 60 -10z"/>
<path d="M4530 3265 c-13 -16 -5 -37 13 -33 7 1 21 -2 32 -8 11 -6 34 -9 50
-7 17 1 73 3 125 3 116 0 188 9 169 21 -8 5 -39 9 -69 8 -30 -1 -73 6 -95 15
-54 21 -208 22 -225 1z"/>
<path d="M4956 3209 c3 -5 -12 -10 -33 -11 -21 -1 -45 -2 -53 -4 -8 -1 -30 -2
-47 -3 -88 -3 28 -65 152 -81 164 -22 195 -23 195 -11 0 13 -122 71 -150 71
-10 0 -20 8 -23 18 -2 11 -14 21 -26 25 -11 3 -19 1 -15 -4z"/>
<path d="M6014 3242 c-6 -4 -14 -32 -16 -62 -3 -30 -11 -56 -17 -58 -6 -2 -11
-21 -11 -42 0 -41 12 -58 90 -123 59 -50 129 -44 81 7 -26 28 -27 40 -1 33 10
-3 20 -1 22 5 2 6 14 5 32 -2 32 -12 41 -8 33 15 -4 8 -5 17 -4 20 1 2 -14 20
-33 41 -25 27 -31 38 -21 42 10 3 8 9 -9 22 -24 18 -20 43 5 33 8 -3 15 0 15
7 0 16 -26 40 -43 40 -8 0 -31 7 -50 15 -40 17 -57 18 -73 7z"/>
<path d="M6215 5540 c-169 -43 -366 -82 -575 -115 -47 -7 -150 -25 -230 -40
-90 -17 -203 -30 -300 -35 l-155 -7 110 -3 c163 -5 104 -13 805 101 140 23
280 45 310 50 160 25 248 43 244 51 -6 10 -168 9 -209 -2z"/>
<path d="M853 3623 c-36 -13 -2 -23 90 -25 74 -2 94 -5 72 -11 -16 -5 -55 -15
-85 -24 -49 -15 -173 -22 -210 -12 -8 2 -15 -3 -15 -11 0 -21 70 -33 125 -21
48 10 130 7 184 -7 17 -4 45 -5 61 -2 l30 7 -30 5 c-22 4 -19 5 10 3 22 -1 92
8 155 21 108 21 141 23 112 5 -10 -6 -9 -11 4 -22 12 -9 15 -10 10 -1 -4 6 -3
12 2 12 5 0 8 10 7 23 -2 19 -7 22 -48 22 -26 0 -47 3 -47 8 0 4 -34 7 -76 7
-41 0 -83 4 -92 9 -19 9 -239 21 -259 14z"/>
<path d="M8820 2795 c0 -19 -4 -35 -10 -35 -8 0 -14 19 -12 41 1 3 -6 6 -14 6
-10 0 -14 -13 -14 -46 0 -30 -3 -41 -9 -32 -6 9 -18 11 -35 7 -15 -4 -26 -2
-26 4 0 5 5 10 10 10 6 0 10 8 10 17 0 14 -4 12 -25 -7 -14 -13 -25 -30 -25
-38 0 -8 -6 -12 -14 -9 -8 3 -17 -1 -20 -10 -4 -9 -13 -13 -22 -9 -8 3 -23 -2
-32 -11 -18 -18 -19 -21 -21 -66 0 -16 -5 -26 -10 -23 -5 3 -11 -7 -14 -22 -3
-15 -8 -37 -12 -49 -5 -17 -3 -23 8 -23 8 0 17 -6 20 -14 3 -7 27 -19 54 -25
26 -7 131 -43 233 -81 226 -84 215 -81 215 -51 0 13 6 26 14 29 11 4 13 -3 8
-29 l-6 -34 15 33 c19 43 27 40 19 -7 -7 -42 -8 -42 63 -56 20 -4 32 -3 32 4
0 6 -6 11 -12 11 -9 0 -8 4 2 10 13 9 13 11 0 19 -15 10 -22 101 -7 101 4 0 6
17 3 38 -14 104 -16 126 -10 115 11 -23 24 -13 24 18 0 16 -4 28 -9 24 -5 -3
-12 -1 -16 5 -11 17 -25 1 -25 -29 0 -45 -12 -91 -23 -91 -6 0 -7 27 -3 76 6
69 5 75 -11 72 -19 -4 -30 -35 -32 -93 -1 -31 -4 -36 -11 -24 -6 11 -6 35 -1
65 9 47 8 50 -22 76 -18 16 -45 36 -60 45 -18 12 -26 24 -23 35 5 23 -12 35
-20 14 -9 -25 -27 -19 -54 19 -14 19 -31 35 -37 35 -7 0 -13 5 -13 10 0 6 -4
10 -10 10 -5 0 -10 -16 -10 -35z"/>
</g>
</svg>
